<?xml version="1.0" encoding="UTF-8"?>
<svg xmlns="http://www.w3.org/2000/svg" xmlns:xlink="http://www.w3.org/1999/xlink" width="32pt" height="32pt" viewBox="0 0 32 32" version="1.1">
<g id="surface8167658">
<path style=" stroke:none;fill-rule:nonzero;fill:rgb(0%,0%,0%);fill-opacity:1;" d="M 1.601562 16 C 1.601562 8.046875 8.046875 1.601562 16 1.601562 C 23.953125 1.601562 30.398438 8.046875 30.398438 16 C 30.398438 23.953125 23.953125 30.398438 16 30.398438 C 8.046875 30.398438 1.601562 23.953125 1.601562 16 Z M 16 29.761719 C 23.597656 29.761719 29.761719 23.597656 29.761719 16 C 29.761719 8.402344 23.597656 2.238281 16 2.238281 C 8.402344 2.238281 2.238281 8.402344 2.238281 16 C 2.238281 23.597656 8.402344 29.761719 16 29.761719 Z M 16 29.761719 "/>
<path style=" stroke:none;fill-rule:nonzero;fill:rgb(0%,0%,0%);fill-opacity:1;" d="M 21.496094 7.617188 C 20.765625 7.617188 20.03125 7.898438 19.460938 8.46875 L 8.394531 19.539062 L 8.351562 19.757812 L 7.585938 23.605469 L 7.367188 24.632812 L 8.394531 24.414062 L 12.242188 23.648438 L 12.460938 23.605469 L 23.53125 12.539062 C 24.667969 11.398438 24.667969 9.605469 23.53125 8.46875 C 22.960938 7.898438 22.230469 7.617188 21.496094 7.617188 Z M 21.496094 8.949219 C 21.847656 8.949219 22.203125 9.113281 22.546875 9.453125 C 23.226562 10.132812 23.226562 10.871094 22.546875 11.554688 L 22.042969 12.035156 L 19.964844 9.957031 L 20.445312 9.453125 C 20.789062 9.113281 21.144531 8.949219 21.496094 8.949219 Z M 18.980469 10.941406 L 21.058594 13.019531 L 12.59375 21.484375 C 12.132812 20.585938 11.414062 19.867188 10.515625 19.40625 Z M 9.617188 20.542969 C 10.457031 20.882812 11.117188 21.542969 11.457031 22.382812 L 9.160156 22.839844 Z M 9.617188 20.542969 "/>
</g>
</svg>
